<svg width="40" height="40" viewBox="0 0 40 40" fill="none" xmlns="http://www.w3.org/2000/svg">
<path fill-rule="evenodd" clip-rule="evenodd" d="M20 39C30.4934 39 39 30.4934 39 20C39 9.50659 30.4934 1 20 1C9.50659 1 1 9.50659 1 20C1 30.4934 9.50659 39 20 39ZM20 40C31.0457 40 40 31.0457 40 20C40 8.9543 31.0457 0 20 0C8.9543 0 0 8.9543 0 20C0 31.0457 8.9543 40 20 40Z" fill="#1D79E4" fill-opacity="0.35"/>
<path d="M21.25 16.875V14.375C21.25 13.685 21.81 13.125 22.5 13.125H23.75V10H21.25C19.1788 10 17.5 11.6788 17.5 13.75V16.875H15V20H17.5V30H21.25V20H23.75L25 16.875H21.25Z" fill="#1D79E4"/>
</svg>
