<svg width="41" height="40" viewBox="0 0 41 40" fill="none" xmlns="http://www.w3.org/2000/svg">
<path fill-rule="evenodd" clip-rule="evenodd" d="M20.8083 39C31.3018 39 39.8083 30.4934 39.8083 20C39.8083 9.50659 31.3018 1 20.8083 1C10.3149 1 1.80835 9.50659 1.80835 20C1.80835 30.4934 10.3149 39 20.8083 39ZM20.8083 40C31.854 40 40.8083 31.0457 40.8083 20C40.8083 8.9543 31.854 0 20.8083 0C9.76265 0 0.80835 8.9543 0.80835 20C0.80835 31.0457 9.76265 40 20.8083 40Z" fill="#1D79E4" fill-opacity="0.35"/>
<g clip-path="url(#clip0_5_85)">
<path d="M30.7888 15.8801C30.7419 14.8174 30.5701 14.0868 30.3239 13.4537C30.07 12.7818 29.6793 12.1801 29.1674 11.68C28.6673 11.1721 28.0617 10.7774 27.3975 10.5274C26.7608 10.2813 26.034 10.1094 24.9713 10.0626C23.9007 10.0118 23.5608 10 20.8455 10C18.1301 10 17.7902 10.0118 16.7236 10.0586C15.6609 10.1055 14.9303 10.2775 14.2974 10.5235C13.6253 10.7774 13.0236 11.1681 12.5235 11.68C12.0156 12.1801 11.6211 12.7857 11.371 13.4499C11.1248 14.0868 10.9529 14.8134 10.9061 15.8761C10.8553 16.9467 10.8435 17.2866 10.8435 20.002C10.8435 22.7173 10.8553 23.0572 10.9021 24.1239C10.949 25.1865 11.121 25.9171 11.3671 26.5502C11.6211 27.2221 12.0156 27.8238 12.5235 28.3239C13.0236 28.8318 13.6292 29.2265 14.2934 29.4765C14.9303 29.7226 15.6569 29.8945 16.7197 29.9413C17.7862 29.9883 18.1263 29.9999 20.8416 29.9999C23.557 29.9999 23.8969 29.9883 24.9635 29.9413C26.0262 29.8945 26.7568 29.7226 27.3897 29.4765C28.7338 28.9568 29.7965 27.8941 30.3161 26.5502C30.5622 25.9133 30.7342 25.1865 30.781 24.1239C30.8279 23.0572 30.8396 22.7173 30.8396 20.002C30.8396 17.2866 30.8357 16.9467 30.7888 15.8801ZM28.9878 24.0457C28.9447 25.0225 28.7807 25.5499 28.6439 25.9015C28.3078 26.7728 27.6163 27.4643 26.745 27.8004C26.3934 27.9372 25.8621 28.1012 24.8892 28.1441C23.8343 28.1911 23.5179 28.2027 20.8494 28.2027C18.1809 28.2027 17.8606 28.1911 16.8095 28.1441C15.8327 28.1012 15.3053 27.9372 14.9537 27.8004C14.5201 27.6402 14.1254 27.3862 13.8051 27.0541C13.473 26.7298 13.219 26.3391 13.0588 25.9055C12.922 25.5539 12.7579 25.0225 12.7151 24.0497C12.668 22.9948 12.6565 22.6783 12.6565 20.0097C12.6565 17.3412 12.668 17.0209 12.7151 15.9699C12.7579 14.9932 12.922 14.4657 13.0588 14.1141C13.219 13.6804 13.473 13.2859 13.809 12.9654C14.1332 12.6333 14.5239 12.3793 14.9576 12.2192C15.3093 12.0825 15.8407 11.9184 16.8134 11.8754C17.8683 11.8285 18.1849 11.8168 20.8532 11.8168C23.5257 11.8168 23.8421 11.8285 24.8932 11.8754C25.8699 11.9184 26.3974 12.0825 26.749 12.2192C27.1826 12.3793 27.5773 12.6333 27.8976 12.9654C28.2297 13.2897 28.4837 13.6804 28.6439 14.1141C28.7807 14.4657 28.9447 14.997 28.9878 15.9699C29.0346 17.0248 29.0464 17.3412 29.0464 20.0097C29.0464 22.6783 29.0346 22.9908 28.9878 24.0457Z" fill="#1D79E4"/>
<path d="M20.8455 14.8641C18.0091 14.8641 15.7078 17.1653 15.7078 20.0019C15.7078 22.8384 18.0091 25.1396 20.8455 25.1396C23.682 25.1396 25.9832 22.8384 25.9832 20.0019C25.9832 17.1653 23.682 14.8641 20.8455 14.8641ZM20.8455 23.3346C19.0054 23.3346 17.5128 21.8421 17.5128 20.0019C17.5128 18.1616 19.0054 16.6691 20.8455 16.6691C22.6857 16.6691 24.1782 18.1616 24.1782 20.0019C24.1782 21.8421 22.6857 23.3346 20.8455 23.3346Z" fill="#1D79E4"/>
<path d="M27.3859 14.6611C27.3859 15.3235 26.8489 15.8605 26.1864 15.8605C25.524 15.8605 24.9869 15.3235 24.9869 14.6611C24.9869 13.9986 25.524 13.4617 26.1864 13.4617C26.8489 13.4617 27.3859 13.9986 27.3859 14.6611Z" fill="#1D79E4"/>
</g>
<defs>
<clipPath id="clip0_5_85">
<rect width="20" height="20" fill="white" transform="translate(10.8083 10)"/>
</clipPath>
</defs>
</svg>
