<svg width="41" height="41" viewBox="0 0 41 41" fill="none" xmlns="http://www.w3.org/2000/svg">
<circle cx="20.8083" cy="20.3154" r="20" fill="#1D79E4"/>
<g clip-path="url(#clip0_5_237)">
<path d="M30.7887 16.1955C30.7419 15.1328 30.57 14.4022 30.3239 13.7692C30.0699 13.0972 29.6792 12.4956 29.1673 11.9954C28.6672 11.4875 28.0616 11.0929 27.3974 10.8429C26.7607 10.5967 26.0339 10.4249 24.9713 10.378C23.9006 10.3272 23.5608 10.3154 20.8454 10.3154C18.13 10.3154 17.7901 10.3272 16.7235 10.374C15.6608 10.4209 14.9302 10.5929 14.2973 10.8389C13.6252 11.0929 13.0236 11.4836 12.5235 11.9954C12.0155 12.4956 11.621 13.1012 11.3709 13.7654C11.1247 14.4022 10.9529 15.1288 10.906 16.1915C10.8552 17.2621 10.8434 17.602 10.8434 20.3174C10.8434 23.0328 10.8552 23.3726 10.902 24.4393C10.9489 25.502 11.1209 26.2325 11.3671 26.8656C11.621 27.5376 12.0155 28.1392 12.5235 28.6393C13.0236 29.1472 13.6292 29.5419 14.2934 29.7919C14.9302 30.0381 15.6569 30.2099 16.7197 30.2568C17.7862 30.3038 18.1262 30.3154 20.8416 30.3154C23.557 30.3154 23.8968 30.3038 24.9635 30.2568C26.0262 30.2099 26.7567 30.0381 27.3896 29.7919C28.7337 29.2722 29.7964 28.2095 30.3161 26.8656C30.5621 26.2287 30.7341 25.502 30.781 24.4393C30.8278 23.3726 30.8396 23.0328 30.8396 20.3174C30.8396 17.602 30.8356 17.2621 30.7887 16.1955ZM28.9877 24.3611C28.9447 25.3379 28.7806 25.8653 28.6439 26.217C28.3078 27.0883 27.6163 27.7798 26.745 28.1158C26.3934 28.2526 25.8621 28.4167 24.8892 28.4595C23.8343 28.5065 23.5179 28.5181 20.8494 28.5181C18.1808 28.5181 17.8605 28.5065 16.8094 28.4595C15.8327 28.4167 15.3052 28.2526 14.9536 28.1158C14.52 27.9556 14.1253 27.7016 13.805 27.3695C13.4729 27.0452 13.2189 26.6545 13.0587 26.2209C12.9219 25.8693 12.7579 25.3379 12.715 24.3651C12.668 23.3102 12.6564 22.9937 12.6564 20.3252C12.6564 17.6566 12.668 17.3363 12.715 16.2854C12.7579 15.3086 12.9219 14.7812 13.0587 14.4295C13.2189 13.9958 13.4729 13.6013 13.809 13.2808C14.1331 12.9487 14.5238 12.6947 14.9576 12.5346C15.3092 12.3979 15.8406 12.2338 16.8134 12.1908C17.8683 12.1439 18.1848 12.1322 20.8532 12.1322C23.5257 12.1322 23.842 12.1439 24.8931 12.1908C25.8699 12.2338 26.3973 12.3979 26.7489 12.5346C27.1825 12.6947 27.5772 12.9487 27.8976 13.2808C28.2296 13.6051 28.4836 13.9958 28.6439 14.4295C28.7806 14.7812 28.9447 15.3124 28.9877 16.2854C29.0346 17.3403 29.0463 17.6566 29.0463 20.3252C29.0463 22.9937 29.0346 23.3062 28.9877 24.3611Z" fill="white"/>
<path d="M20.8455 15.1796C18.0091 15.1796 15.7078 17.4807 15.7078 20.3173C15.7078 23.1538 18.0091 25.455 20.8455 25.455C23.682 25.455 25.9832 23.1538 25.9832 20.3173C25.9832 17.4807 23.682 15.1796 20.8455 15.1796ZM20.8455 23.65C19.0054 23.65 17.5128 22.1576 17.5128 20.3173C17.5128 18.477 19.0054 16.9846 20.8455 16.9846C22.6857 16.9846 24.1782 18.477 24.1782 20.3173C24.1782 22.1576 22.6857 23.65 20.8455 23.65Z" fill="white"/>
<path d="M27.3859 14.9765C27.3859 15.6389 26.8488 16.1759 26.1863 16.1759C25.524 16.1759 24.9869 15.6389 24.9869 14.9765C24.9869 14.314 25.524 13.7771 26.1863 13.7771C26.8488 13.7771 27.3859 14.314 27.3859 14.9765Z" fill="white"/>
</g>
<defs>
<clipPath id="clip0_5_237">
<rect width="20" height="20" fill="white" transform="translate(10.8083 10.3154)"/>
</clipPath>
</defs>
</svg>
