<svg width="41" height="40" viewBox="0 0 41 40" fill="none" xmlns="http://www.w3.org/2000/svg">
<path fill-rule="evenodd" clip-rule="evenodd" d="M20.4042 39C30.8976 39 39.4042 30.4934 39.4042 20C39.4042 9.50659 30.8976 1 20.4042 1C9.91076 1 1.40417 9.50659 1.40417 20C1.40417 30.4934 9.91076 39 20.4042 39ZM20.4042 40C31.4499 40 40.4042 31.0457 40.4042 20C40.4042 8.9543 31.4499 0 20.4042 0C9.35848 0 0.404175 8.9543 0.404175 20C0.404175 31.0457 9.35848 40 20.4042 40Z" fill="#1D79E4" fill-opacity="0.35"/>
<g clip-path="url(#clip0_5_79)">
<path d="M30.4042 13.7988C29.6604 14.125 28.8679 14.3412 28.0417 14.4462C28.8917 13.9388 29.5404 13.1412 29.8454 12.18C29.0529 12.6525 28.1779 12.9863 27.2454 13.1725C26.4929 12.3713 25.4204 11.875 24.2504 11.875C21.9804 11.875 20.1529 13.7175 20.1529 15.9763C20.1529 16.3012 20.1804 16.6137 20.2479 16.9112C16.8392 16.745 13.8229 15.1113 11.7967 12.6225C11.4429 13.2363 11.2354 13.9388 11.2354 14.695C11.2354 16.115 11.9667 17.3737 13.0567 18.1025C12.3979 18.09 11.7517 17.8988 11.2042 17.5975C11.2042 17.61 11.2042 17.6262 11.2042 17.6425C11.2042 19.635 12.6254 21.29 14.4892 21.6712C14.1554 21.7625 13.7917 21.8062 13.4142 21.8062C13.1517 21.8062 12.8867 21.7913 12.6379 21.7362C13.1692 23.36 14.6767 24.5538 16.4692 24.5925C15.0742 25.6838 13.3029 26.3412 11.3854 26.3412C11.0492 26.3412 10.7267 26.3263 10.4042 26.285C12.2204 27.4563 14.3729 28.125 16.6942 28.125C24.2392 28.125 28.3642 21.875 28.3642 16.4575C28.3642 16.2762 28.3579 16.1013 28.3492 15.9275C29.1629 15.35 29.8467 14.6288 30.4042 13.7988Z" fill="#1D79E4"/>
</g>
<defs>
<clipPath id="clip0_5_79">
<rect width="20" height="20" fill="white" transform="translate(10.4042 10)"/>
</clipPath>
</defs>
</svg>
