<svg width="41" height="41" viewBox="0 0 41 41" fill="none" xmlns="http://www.w3.org/2000/svg">
<circle cx="20.4042" cy="20.3154" r="20" fill="#1D79E4"/>
<g clip-path="url(#clip0_5_231)">
<path d="M30.4042 14.1142C29.6604 14.4404 28.8679 14.6567 28.0417 14.7617C28.8917 14.2542 29.5404 13.4567 29.8454 12.4954C29.0529 12.9679 28.1779 13.3017 27.2454 13.4879C26.4929 12.6867 25.4204 12.1904 24.2504 12.1904C21.9804 12.1904 20.1529 14.0329 20.1529 16.2917C20.1529 16.6167 20.1804 16.9292 20.2479 17.2267C16.8392 17.0604 13.8229 15.4267 11.7967 12.9379C11.4429 13.5517 11.2354 14.2542 11.2354 15.0104C11.2354 16.4304 11.9667 17.6892 13.0567 18.4179C12.3979 18.4054 11.7517 18.2142 11.2042 17.9129C11.2042 17.9254 11.2042 17.9417 11.2042 17.9579C11.2042 19.9504 12.6254 21.6054 14.4892 21.9867C14.1554 22.0779 13.7917 22.1217 13.4142 22.1217C13.1517 22.1217 12.8867 22.1067 12.6379 22.0517C13.1692 23.6754 14.6767 24.8692 16.4692 24.9079C15.0742 25.9992 13.3029 26.6567 11.3854 26.6567C11.0492 26.6567 10.7267 26.6417 10.4042 26.6004C12.2204 27.7717 14.3729 28.4404 16.6942 28.4404C24.2392 28.4404 28.3642 22.1904 28.3642 16.7729C28.3642 16.5917 28.3579 16.4167 28.3492 16.2429C29.1629 15.6654 29.8467 14.9442 30.4042 14.1142Z" fill="white"/>
</g>
<defs>
<clipPath id="clip0_5_231">
<rect width="20" height="20" fill="white" transform="translate(10.4042 10.3154)"/>
</clipPath>
</defs>
</svg>
